<?xml version="1.0" encoding="iso-8859-1"?>
<!-- Generator: Adobe Illustrator 19.0.0, SVG Export Plug-In . SVG Version: 6.00 Build 0)  -->
<svg version="1.1" id="Layer_1" xmlns="http://www.w3.org/2000/svg" xmlns:xlink="http://www.w3.org/1999/xlink" x="0px" y="0px"
	 viewBox="0 0 512 512" style="enable-background:new 0 0 512 512;" xml:space="preserve">
<g>
	<g>
		<path d="M437.02,74.98C388.667,26.628,324.381,0,256,0C187.62,0,123.333,26.628,74.98,74.98C26.628,123.333,0,187.62,0,256
			s26.628,132.667,74.98,181.02C123.333,485.372,187.62,512,256,512c68.381,0,132.667-26.628,181.02-74.98
			C485.372,388.667,512,324.38,512,256S485.372,123.333,437.02,74.98z M256,478.609c-122.746,0-222.609-99.862-222.609-222.609
			S133.254,33.391,256,33.391S478.609,133.254,478.609,256S378.746,478.609,256,478.609z"/>
	</g>
</g>
<g>
	<g>
		<path d="M428.906,220.456c-8.175-10.609-13.186-17.525-13.186-25.65c0-24.996-7.32-43.595-21.76-55.283
			c-6.217-5.032-12.906-8.036-19.25-9.781V92.54h-33.391v23.713C315.78,100.661,286.274,92.262,256,92.262
			c-31.24,0-61.463,8.81-87.681,25.472c-32.322,5.541-59.379,22.834-78.675,50.431c-18.887,27.012-28.497,61.916-27.058,98.285
			c1.439,36.368,13.776,70.403,34.74,95.839c23.528,28.546,55.406,43.964,92.19,44.584c0.226,0.003,0.45,0.006,0.674,0.006
			c0.657,0,1.303-0.042,1.952-0.073c20.218,8.583,41.676,12.936,63.858,12.936c52.602,0,101.559-25.074,132.381-67.404
			c15.334-3.487,28.54-9.76,38.984-18.636c16.323-13.871,25.313-33.607,25.313-55.575
			C452.678,251.307,439.496,234.201,428.906,220.456z M193.435,371.923c-0.363,1.106-1.99,1.581-3.356,1.562
			c-33.74-0.569-55.05-17.952-66.986-32.434c-16.351-19.839-25.991-46.801-27.143-75.922c-1.152-29.122,6.327-56.762,21.058-77.831
			c10.754-15.38,30.624-34.392,64.214-37.625c0.179-0.018,0.363-0.026,0.549-0.026c1.225,0,2.531,0.386,2.921,1.319
			c0.351,0.84,0.19,1.805-0.38,2.425c-0.4,0.419-1.772,1.657-2.875,2.652c-12.798,11.55-51.744,46.7-49.331,107.655
			c2.412,60.955,44.014,92.917,57.686,103.42c1.178,0.905,2.643,2.03,3.042,2.387C193.481,370.109,193.717,371.058,193.435,371.923z
			 M256,386.345c-10.56,0.001-20.907-1.237-30.959-3.689c0.038-0.112,0.087-0.218,0.124-0.332
			c4.33-13.205,0.561-27.838-9.601-37.283c-1.451-1.349-3.207-2.698-5.429-4.405c-12.828-9.855-42.87-32.935-44.663-78.261
			c-1.794-45.325,26.329-70.706,38.339-81.545c2.08-1.879,3.724-3.361,5.064-4.821c9.384-10.217,11.985-25.101,6.626-37.924
			c-0.75-1.795-1.641-3.499-2.65-5.109c13.757-4.824,28.307-7.326,43.15-7.326c22.268,0,44.013,5.705,63.224,16.361
			c-12.551,11.767-18.915,29.499-18.915,52.792c0,8.125-5.011,15.041-13.186,25.65c-10.593,13.746-23.773,30.852-23.773,57.669
			c0,21.967,8.99,41.705,25.314,55.575c13.416,11.399,31.386,18.499,52.575,20.916C317.843,374.861,287.754,386.345,256,386.345z
			 M358.014,322.168c-38.368,0-61.274-16.465-61.274-44.044c0-15.443,7.8-25.567,16.833-37.287
			c9.434-12.244,20.127-26.121,20.127-46.031c0-30.358,13.876-33.87,24.314-33.87s24.314,3.511,24.314,33.87
			c0,19.91,10.693,33.788,20.127,46.031c9.031,11.721,16.831,21.843,16.831,37.287C419.287,305.703,396.381,322.168,358.014,322.168
			z"/>
	</g>
</g>
<g>
	<g>
		<circle cx="267.13" cy="166.956" r="16.696"/>
	</g>
</g>
<g>
	<g>
		<circle cx="219.615" cy="211.478" r="16.696"/>
	</g>
</g>
<g>
	<g>
		<circle cx="228.174" cy="274.365" r="16.696"/>
	</g>
</g>
<g>
</g>
<g>
</g>
<g>
</g>
<g>
</g>
<g>
</g>
<g>
</g>
<g>
</g>
<g>
</g>
<g>
</g>
<g>
</g>
<g>
</g>
<g>
</g>
<g>
</g>
<g>
</g>
<g>
</g>
</svg>
