<?xml version="1.0" encoding="iso-8859-1"?>
<!-- Generator: Adobe Illustrator 19.0.0, SVG Export Plug-In . SVG Version: 6.00 Build 0)  -->
<svg version="1.1" id="Layer_1" xmlns="http://www.w3.org/2000/svg" xmlns:xlink="http://www.w3.org/1999/xlink" x="0px" y="0px"
	 viewBox="0 0 512 512" style="enable-background:new 0 0 512 512;" xml:space="preserve">
<g>
	<g>
		<path d="M440.705,180.679l-31.697-10.503l-28.514,86.055l-18.792-11.61c12.38-12.56,19.201-29.162,19.201-46.816
			c0-2.916-0.205-5.799-0.571-8.644l23.028-23.029l-23.612-23.611l-13.532,13.532c-1.513-1.877-3.123-3.691-4.852-5.419
			c-1.736-1.736-3.549-3.347-5.421-4.852l13.534-13.534l-23.611-23.611l-23.058,23.058c-19.675-2.541-40.267,3.655-55.431,18.6
			l-11.611-18.793l86.056-28.515L331.32,71.293l-64.371,21.328c-3.635-0.24-7.305-0.362-10.951-0.362
			c-90.286,0-163.738,73.452-163.738,163.738c0,22.355,4.594,44.425,13.353,64.781l-34.931,14.436L176.78,441.312l14.436-34.931
			c20.358,8.761,42.426,13.353,64.781,13.353c90.286,0,163.738-73.452,163.738-163.738c0-3.644-0.121-7.314-0.362-10.95
			L440.705,180.679z M290.633,174.248c12.991-12.99,34.129-12.992,47.121-0.001c12.99,12.991,12.99,34.128,0,47.12l-30.008,30.008
			l-47.12-47.12L290.633,174.248z M165.025,382.336l-35.362-35.362l28.447-11.757l18.672,18.671L165.025,382.336z M151.004,302.023
			l-14.53,6.005c-7.099-16.323-10.821-34.055-10.821-52.028c0-58.165,38.299-107.549,91-124.272l26.457,42.821l-6.095,6.094
			l-21.455-21.454L191.95,182.8l23.533,23.533l-19.228,28.535L168.07,206.68l-23.611,23.611l32.787,32.788L151.004,302.023z
			 M183.568,313.452l55.971-83.064l42.074,42.074l-83.064,55.971L183.568,313.452z M256,386.346
			c-17.973,0-35.705-3.722-52.028-10.821l6.005-14.529l38.945-26.242l32.788,32.788l23.611-23.611l-28.187-28.187l28.535-19.228
			l23.533,23.533l23.611-23.611l-21.454-21.454l6.095-6.095l42.82,26.457C363.549,348.049,314.165,386.346,256,386.346z"/>
	</g>
</g>
<g>
	<g>
		<path d="M437.02,74.98C388.667,26.628,324.38,0,256,0S123.333,26.628,74.98,74.98C26.628,123.333,0,187.619,0,256
			s26.628,132.667,74.98,181.02C123.333,485.372,187.62,512,256,512s132.667-26.628,181.02-74.98
			C485.372,388.667,512,324.381,512,256S485.372,123.333,437.02,74.98z M256,478.609c-122.746,0-222.609-99.862-222.609-222.609
			S133.254,33.391,256,33.391S478.609,133.254,478.609,256S378.746,478.609,256,478.609z"/>
	</g>
</g>
<g>
</g>
<g>
</g>
<g>
</g>
<g>
</g>
<g>
</g>
<g>
</g>
<g>
</g>
<g>
</g>
<g>
</g>
<g>
</g>
<g>
</g>
<g>
</g>
<g>
</g>
<g>
</g>
<g>
</g>
</svg>
