<?xml version="1.0" encoding="iso-8859-1"?>
<!-- Generator: Adobe Illustrator 19.0.0, SVG Export Plug-In . SVG Version: 6.00 Build 0)  -->
<svg version="1.1" id="Layer_1" xmlns="http://www.w3.org/2000/svg" xmlns:xlink="http://www.w3.org/1999/xlink" x="0px" y="0px"
	 viewBox="0 0 512 512" style="enable-background:new 0 0 512 512;" xml:space="preserve">
<g>
	<g>
		<path d="M462.823,239.723c-5.976-12.178-16.336-21.299-29.172-25.683c-0.124-0.042-0.248-0.085-0.372-0.126
			c-4.295-21.531-19.272-39.619-40.354-47.705c-14.043-21.367-32.996-39.303-55.16-52.098C313.009,99.817,284.735,92.262,256,92.262
			c-5.217,0-10.458,0.255-15.648,0.746c-8.597-4.456-18.343-6.989-28.676-6.989c-27.817,0-51.442,18.257-59.547,43.414
			c-6.411,5.268-12.42,11.021-17.967,17.195c-1.939-0.014-3.881,0.032-5.806,0.155c-8.013,0.511-15.315,4.162-20.565,10.279
			c-5.297,6.174-7.917,14.395-7.189,22.558c0.052,0.582,0.066,1.183,0.039,1.781c-0.294,6.607-5.916,12.141-12.528,12.336
			c-0.687,0.02-1.38-0.012-2.054-0.097c-8.093-1.02-16.358,1.299-22.685,6.355c-6.301,5.035-10.2,12.221-10.98,20.235
			c-0.328,3.378-0.446,6.82-0.353,10.231c0.58,20.994,9.184,40.751,24.224,55.629c6.673,6.6,14.295,11.917,22.54,15.829
			c9.357,31.984,28.56,60.782,54.728,81.802c28.917,23.226,65.307,36.016,102.466,36.016c36.914,0,73.114-12.64,101.934-35.591
			c23.543-18.749,41.528-43.808,51.832-71.827c2.481,0.37,4.963,0.561,7.426,0.561c21.123-0.001,40.898-13.293,48.098-34.37
			C469.675,265.676,468.799,251.9,462.823,239.723z M211.676,119.411c16.08,0,29.162,13.082,29.162,29.162
			s-13.082,29.162-29.162,29.162s-29.162-13.082-29.162-29.162S195.596,119.411,211.676,119.411z M85.419,229.541
			c-0.021-0.819-0.023-1.642-0.006-2.463c1.221,0.06,2.45,0.071,3.674,0.037c24.115-0.709,43.843-20.137,44.912-44.238
			c0.042-0.953,0.055-1.91,0.039-2.864c0.657,0.006,1.312,0.026,1.966,0.058h0.003c25.326,1.259,45.408,22.122,45.717,47.497
			c0.16,13.143-4.877,25.482-14.187,34.746c-9.307,9.262-21.672,14.236-34.819,14.017C107.34,275.898,86.122,254.908,85.419,229.541
			z M256,386.346c-30.011,0-58.212-9.909-81.555-28.659c-16.063-12.901-28.81-29.48-37.23-48.047
			c20.345-0.884,39.32-9.171,53.878-23.659c15.762-15.685,24.293-36.575,24.022-58.821c-0.067-5.503-0.691-10.878-1.805-16.077
			c33.737-0.872,60.92-28.567,60.92-62.512c0-7.791-1.444-15.249-4.058-22.134c17.926,1.953,35.296,7.581,50.897,16.589
			c10.41,6.01,19.926,13.451,28.284,22.028c-8.077,2.652-15.636,6.899-22.199,12.602c-0.124-0.043-0.247-0.086-0.371-0.128
			c-12.838-4.385-26.613-3.51-38.79,2.465c-12.178,5.976-21.299,16.336-25.683,29.172c-9.052,26.498,5.14,55.421,31.639,64.474
			c0.204,0.07,0.41,0.129,0.614,0.196c1.449,18.883-1.317,39.546-8.29,61.615l-4.916,15.556l44.339,15.147
			C304.908,379.388,281.082,386.346,256,386.346z M343.867,337.077l-21.349-7.294c4.492-18.444,6.374-36.177,5.663-53.036
			c6.002,4.985,12.889,8.863,20.463,11.451c7.575,2.588,15.396,3.735,23.193,3.464C360.96,304.561,351.6,319.74,343.867,337.077z
			 M433.692,267.716c-3.101,9.076-13.006,13.934-22.079,10.836c-5.245-1.792-9.232-5.852-10.938-11.142l-5.171-16.024l-15.98,5.307
			c-6.573,2.182-13.517,2.149-20.083-0.094c-6.566-2.243-12.079-6.467-15.941-12.213l-9.393-13.975l-13.894,9.511
			c-4.586,3.139-10.224,3.911-15.468,2.12c-9.075-3.101-13.936-13.006-10.835-22.081c1.503-4.395,4.626-7.944,8.795-9.991
			c4.169-2.047,8.887-2.347,13.285-0.844c1.72,0.588,3.329,1.435,4.782,2.518l13.493,10.061l9.952-13.574
			c8.183-11.16,22.492-15.647,35.599-11.17c13.112,4.479,21.681,16.784,21.325,30.616l-0.433,16.825l16.827,0.298
			c1.813,0.032,3.604,0.346,5.323,0.934h0.001c4.395,1.503,7.944,4.626,9.991,8.796
			C434.894,258.603,435.193,263.322,433.692,267.716z"/>
	</g>
</g>
<g>
	<g>
		<circle cx="189.217" cy="325.387" r="16.696"/>
	</g>
</g>
<g>
	<g>
		<circle cx="230.957" cy="308.691" r="16.696"/>
	</g>
</g>
<g>
	<g>
		<circle cx="222.609" cy="353.213" r="16.696"/>
	</g>
</g>
<g>
	<g>
		<path d="M437.02,74.98C388.667,26.628,324.38,0,256,0S123.333,26.628,74.98,74.98C26.628,123.333,0,187.62,0,256
			s26.628,132.667,74.98,181.02C123.333,485.372,187.62,512,256,512s132.667-26.628,181.02-74.98
			C485.372,388.667,512,324.38,512,256S485.372,123.333,437.02,74.98z M256,478.609c-122.746,0-222.609-99.862-222.609-222.609
			S133.254,33.391,256,33.391S478.609,133.254,478.609,256S378.746,478.609,256,478.609z"/>
	</g>
</g>
<g>
</g>
<g>
</g>
<g>
</g>
<g>
</g>
<g>
</g>
<g>
</g>
<g>
</g>
<g>
</g>
<g>
</g>
<g>
</g>
<g>
</g>
<g>
</g>
<g>
</g>
<g>
</g>
<g>
</g>
</svg>
